<svg width="158" height="158" viewBox="0 0 158 158" fill="none" xmlns="http://www.w3.org/2000/svg">
<circle cx="78.5644" cy="78.5644" r="78.5644" fill="#2F8453"/>
<path d="M124 31C125.105 31 126 31.8954 126 33V124C126 125.105 125.105 126 124 126H100.503C99.9123 126 99.3516 125.739 98.9716 125.286L66.865 87.0489C65.6645 85.6192 63.3333 86.4681 63.3333 88.335V124C63.3333 125.105 62.4379 126 61.3333 126H34C32.8954 126 32 125.105 32 124V33C32 31.8954 32.8954 31 34 31H57.4968C58.0877 31 58.6484 31.2613 59.0284 31.7139L91.135 69.9511C92.3355 71.3808 94.6667 70.5319 94.6667 68.665V33C94.6667 31.8954 95.5621 31 96.6667 31H124Z" fill="white"/>
</svg>
